<svg xmlns="http://www.w3.org/2000/svg" xmlns:xlink="http://www.w3.org/1999/xlink" fill="none" version="1.1" width="148" height="165.2044677734375" viewBox="0 0 148 165.2044677734375"><defs><filter id="master_svg0_5_01844" filterUnits="objectBoundingBox" color-interpolation-filters="sRGB" x="-0.4166666666666667" y="-0.3404255319148936" width="1.8333333333333333" height="1.851063829787234"><feFlood flood-opacity="0" result="BackgroundImageFix"/><feColorMatrix in="SourceAlpha" type="matrix" values="0 0 0 0 0 0 0 0 0 0 0 0 0 0 0 0 0 0 127 0"/><feOffset dy="4" dx="0"/><feGaussianBlur stdDeviation="5"/><feColorMatrix type="matrix" values="0 0 0 0 1 0 0 0 0 0.886274516582489 0 0 0 0 0.14509804546833038 0 0 0 1 0"/><feBlend mode="normal" in2="BackgroundImageFix" result="effect1_dropShadow"/><feBlend mode="normal" in="SourceGraphic" in2="effect1_dropShadow" result="shape"/></filter><linearGradient x1="-0.04619333893060684" y1="0.9418478012084961" x2="1.0929394960403442" y2="0.9418478012084961" id="master_svg1_5_00280"><stop offset="0%" stop-color="#FFE225" stop-opacity="1"/><stop offset="100%" stop-color="#FF5C25" stop-opacity="1"/></linearGradient><filter id="master_svg2_5_01846" filterUnits="objectBoundingBox" color-interpolation-filters="sRGB" x="-0.19128788345218867" y="-0.1" width="1.3825757669043772" height="1.2"><feFlood flood-opacity="0" result="BackgroundImageFix"/><feBlend mode="normal" in="SourceGraphic" in2="BackgroundImageFix" result="shape"/><feColorMatrix in="SourceAlpha" type="matrix" result="hardAlpha" values="0 0 0 0 0 0 0 0 0 0 0 0 0 0 0 0 0 0 127 0"/><feOffset dy="14" dx="0"/><feGaussianBlur stdDeviation="5.5"/><feComposite in2="hardAlpha" operator="arithmetic" k2="-1" k3="1"/><feColorMatrix type="matrix" values="0 0 0 0 1 0 0 0 0 1 0 0 0 0 1 0 0 0 0.30000001192092896 0"/><feBlend mode="normal" in2="shape" result="effect1_innerShadow"/><feGaussianBlur stdDeviation="1" result="effect2_foregroundBlur"/></filter><linearGradient x1="0.5" y1="0" x2="0.5" y2="1" id="master_svg3_5_9371"><stop offset="0%" stop-color="#FFFFFF" stop-opacity="1"/><stop offset="100%" stop-color="#FFFFFF" stop-opacity="0.23000000417232513"/></linearGradient><filter id="master_svg4_5_01848" filterUnits="objectBoundingBox" color-interpolation-filters="sRGB" x="-0.524390243902439" y="-0.45121951219512196" width="2.048780487804878" height="2.048780487804878"><feFlood flood-opacity="0" result="BackgroundImageFix"/><feColorMatrix in="SourceAlpha" type="matrix" values="0 0 0 0 0 0 0 0 0 0 0 0 0 0 0 0 0 0 127 0"/><feMorphology radius="3" operator="dilate" in="SourceAlpha" result="effect1_dropShadow"/><feOffset dy="6" dx="0"/><feGaussianBlur stdDeviation="10"/><feColorMatrix type="matrix" values="0 0 0 0 0.6175822019577026 0 0 0 0 0.7837302684783936 0 0 0 0 0.11508534848690033 0 0 0 1 0"/><feBlend mode="normal" in2="BackgroundImageFix" result="effect1_dropShadow"/><feBlend mode="normal" in="SourceGraphic" in2="effect1_dropShadow" result="shape"/><feColorMatrix in="SourceAlpha" type="matrix" result="hardAlpha" values="0 0 0 0 0 0 0 0 0 0 0 0 0 0 0 0 0 0 127 0"/><feOffset dy="20" dx="0"/><feGaussianBlur stdDeviation="14"/><feComposite in2="hardAlpha" operator="arithmetic" k2="-1" k3="1"/><feColorMatrix type="matrix" values="0 0 0 0 1 0 0 0 0 1 0 0 0 0 1 0 0 0 1 0"/><feBlend mode="normal" in2="shape" result="effect2_innerShadow"/></filter><linearGradient x1="0.8247780203819275" y1="1.0828900337219238" x2="0.2634305655956269" y2="0.0622586980462074" id="master_svg5_5_3942"><stop offset="0%" stop-color="#FFFBB3" stop-opacity="1"/><stop offset="100%" stop-color="#FFFBA7" stop-opacity="1"/></linearGradient><linearGradient x1="0.5287298560142517" y1="-0.19997282326221466" x2="0.5000000000000001" y2="1.2907754182815552" id="master_svg6_5_6355"><stop offset="0%" stop-color="#E2DCB8" stop-opacity="1"/><stop offset="100%" stop-color="#FFDD00" stop-opacity="0"/></linearGradient><filter id="master_svg7_5_01853" filterUnits="objectBoundingBox" color-interpolation-filters="sRGB" x="-0.35347134605212077" y="-0.2827770768416966" width="1.7069426921042417" height="1.7069426921042417"><feFlood flood-opacity="0" result="BackgroundImageFix"/><feColorMatrix in="SourceAlpha" type="matrix" values="0 0 0 0 0 0 0 0 0 0 0 0 0 0 0 0 0 0 127 0"/><feOffset dy="4" dx="0"/><feGaussianBlur stdDeviation="5"/><feColorMatrix type="matrix" values="0 0 0 0 1 0 0 0 0 1 0 0 0 0 1 0 0 0 0.30000001192092896 0"/><feBlend mode="normal" in2="BackgroundImageFix" result="effect1_dropShadow"/><feBlend mode="normal" in="SourceGraphic" in2="effect1_dropShadow" result="shape"/></filter><linearGradient x1="1.0491552352905273" y1="0.27662110328674316" x2="0.20355957746505735" y2="0.6058251857757568" id="master_svg8_5_1525"><stop offset="0%" stop-color="#FFFFFF" stop-opacity="1"/><stop offset="100%" stop-color="#FFFFFF" stop-opacity="0"/></linearGradient><filter id="master_svg9_5_01854" filterUnits="objectBoundingBox" color-interpolation-filters="sRGB" x="-0.41979249621553566" y="-0.41979249621553566" width="1.8395849924310714" height="1.8395849924310714"><feFlood flood-opacity="0" result="BackgroundImageFix"/><feBlend mode="normal" in="SourceGraphic" in2="BackgroundImageFix" result="shape"/><feGaussianBlur stdDeviation="5" result="effect1_foregroundBlur"/></filter><linearGradient x1="0.2447851598262787" y1="-0.1453588902950287" x2="0.5" y2="1" id="master_svga_5_0075"><stop offset="0%" stop-color="#FAFFD9" stop-opacity="1"/><stop offset="100%" stop-color="#FFFFFF" stop-opacity="0"/></linearGradient><linearGradient x1="76" y1="66.2044677734375" x2="76" y2="98.2044677734375" gradientUnits="userSpaceOnUse" id="master_svgb_5_8149"><stop offset="0.7142857182770967%" stop-color="#FFFFFF" stop-opacity="1"/><stop offset="98.57142567634583%" stop-color="#FAFFDD" stop-opacity="1"/></linearGradient></defs><g><g><g filter="url(#master_svg0_5_01844)"><g><path d="M52.00822,47.3710677734375C50.63533,50.0333677734375,52.56796,53.2044677734375,55.56334,53.2044677734375L90.49549999999999,53.2044677734375C93.4768,53.2044677734375,95.41040000000001,50.0602677734375,94.0652,47.3996677734375L76.7721,13.1952777734375C75.2989,10.281447773437499,71.1437,10.2647877734375,69.6472,13.166707773437501L52.00822,47.3710677734375Z" fill="url(#master_svg1_5_00280)" fill-opacity="1"/></g><g filter="url(#master_svg2_5_01846)"><path d="M53.85666263549805,47.2778677734375C53.16053963549805,48.6094677734375,54.12650263549805,50.2044677734375,55.629082635498044,50.2044677734375L71.23763263549804,50.2044677734375C72.34223263549805,50.2044677734375,73.23763263549804,49.3090677734375,73.23763263549804,48.2044677734375L73.23763263549804,18.3472177734375C73.23763263549804,16.2562677734375,70.43393263549805,15.5676277734375,69.46523263549804,17.4206477734375L53.85666263549805,47.2778677734375Z" fill="url(#master_svg3_5_9371)" fill-opacity="1"/></g></g></g><g><ellipse cx="72.648681640625" cy="84.853759765625" rx="32" ry="32" fill="#FFA052" fill-opacity="1"/></g><g filter="url(#master_svg4_5_01848)"><ellipse cx="74" cy="85.2044677734375" rx="41" ry="41" fill="url(#master_svg5_5_3942)" fill-opacity="1"/></g><g><ellipse cx="73" cy="85.2044677734375" rx="29" ry="29" fill="url(#master_svg6_5_6355)" fill-opacity="1"/></g><g><ellipse cx="73" cy="85.2044677734375" rx="27" ry="27" fill="#FFDD00" fill-opacity="1"/></g><g transform="matrix(-0.258819043636322,-0.9659258127212524,0.9659258127212524,-0.258819043636322,-49.16067226756422,201.2828143006409)" style="opacity:0.4300000071525574;" filter="url(#master_svg7_5_01853)"><ellipse cx="80.93536758422852" cy="147.79339981079102" rx="28.290836334228516" ry="28.290836334228516" fill="url(#master_svg8_5_1525)" fill-opacity="1"/></g><g transform="matrix(-0.8660253882408142,0.5000000596046448,-0.5000000596046448,-0.8660253882408142,242.9722045798626,122.32864866579621)" filter="url(#master_svg9_5_01854)"><ellipse cx="128.91846084594727" cy="117.53772354125977" rx="23.821292877197266" ry="23.821292877197266" fill="url(#master_svga_5_0075)" fill-opacity="1"/></g><g><path d="M66.407,93.5264677734375C68.753,93.5264677734375,70.777,92.6294677734375,71.95,91.4794677734375L71.95,83.7974677734375L65.878,83.7974677734375L65.878,86.5804677734375L68.891,86.5804677734375L68.891,89.93846777343751C68.431,90.3524677734375,67.58,90.5824677734375,66.775,90.5824677734375C63.417,90.5824677734375,61.738,88.35146777343749,61.738,84.6484677734375C61.738,80.9914677734375,63.67,78.78346777343751,66.522,78.78346777343751C68.03999999999999,78.78346777343751,69.006,79.4044677734375,69.857,80.2094677734375L71.674,78.0474677734375C70.57,76.9204677734375,68.868,75.8624677734375,66.407,75.8624677734375C61.876,75.8624677734375,58.242,79.1514677734375,58.242,84.7634677734375C58.242,90.4444677734375,61.784,93.5264677734375,66.407,93.5264677734375ZM82.346,93.5264677734375C86.854,93.5264677734375,89.959,90.1454677734375,89.959,84.6024677734375C89.959,79.0824677734375,86.854,75.8624677734375,82.346,75.8624677734375C77.838,75.8624677734375,74.733,79.0824677734375,74.733,84.6024677734375C74.733,90.1454677734375,77.838,93.5264677734375,82.346,93.5264677734375ZM82.346,90.5824677734375C79.816,90.5824677734375,78.229,88.2364677734375,78.229,84.6024677734375C78.229,80.9684677734375,79.816,78.78346777343751,82.346,78.78346777343751C84.876,78.78346777343751,86.486,80.9684677734375,86.486,84.6024677734375C86.486,88.2364677734375,84.876,90.5824677734375,82.346,90.5824677734375Z" fill="url(#master_svgb_5_8149)" fill-opacity="1"/></g></g></svg>