<svg xmlns="http://www.w3.org/2000/svg" xmlns:xlink="http://www.w3.org/1999/xlink" fill="none" version="1.1" width="408" height="408" viewBox="0 0 408 408"><defs><filter id="master_svg0_5_01836" filterUnits="objectBoundingBox" color-interpolation-filters="sRGB" x="0" y="0" width="1" height="1"><feFlood flood-opacity="0" result="BackgroundImageFix"/><feBlend mode="normal" in="SourceGraphic" in2="BackgroundImageFix" result="shape"/><feColorMatrix in="SourceAlpha" type="matrix" result="hardAlpha" values="0 0 0 0 0 0 0 0 0 0 0 0 0 0 0 0 0 0 127 0"/><feOffset dy="4" dx="0"/><feGaussianBlur stdDeviation="7.5"/><feComposite in2="hardAlpha" operator="arithmetic" k2="-1" k3="1"/><feColorMatrix type="matrix" values="0 0 0 0 0 0 0 0 0 0 0 0 0 0 0 0 0 0 0.30000001192092896 0"/><feBlend mode="normal" in2="shape" result="effect1_innerShadow"/></filter></defs><g><g><ellipse cx="204" cy="204" rx="204" ry="204" fill="#E2FF8A" fill-opacity="1"/></g><g filter="url(#master_svg0_5_01836)"><ellipse cx="204" cy="204" rx="188" ry="188" fill="#A9E200" fill-opacity="1"/><ellipse cx="204" cy="204" rx="186.5" ry="186.5" fill-opacity="0" stroke-opacity="1" stroke="#C2F81E" fill="none" stroke-width="3"/></g><g><ellipse cx="204" cy="204" rx="159" ry="159" fill="#FFFFFF" fill-opacity="1"/></g><g><ellipse cx="204" cy="204" rx="159" ry="159" fill="#FFFFFF" fill-opacity="1"/></g><g><ellipse cx="204" cy="204" rx="157.5" ry="157.5" fill-opacity="0" stroke-opacity="1" stroke="#92BF0B" fill="none" stroke-width="3"/></g><g><ellipse cx="204" cy="32" rx="4" ry="4" fill="#FFFFFF" fill-opacity="1"/></g><g><ellipse cx="74" cy="93" rx="4" ry="4" fill="#FFFFFF" fill-opacity="1"/></g><g><ellipse cx="74" cy="317" rx="4" ry="4" fill="#FFFFFF" fill-opacity="1"/></g><g><ellipse cx="334" cy="93" rx="4" ry="4" fill="#FFFFFF" fill-opacity="1"/></g><g><ellipse cx="334" cy="317" rx="4" ry="4" fill="#FFFFFF" fill-opacity="1"/></g><g><ellipse cx="32" cy="204" rx="4" ry="4" fill="#FFFFFF" fill-opacity="1"/></g><g><ellipse cx="377" cy="204" rx="4" ry="4" fill="#FFFFFF" fill-opacity="1"/></g><g><ellipse cx="204" cy="377" rx="4" ry="4" fill="#FFFFFF" fill-opacity="1"/></g></g></svg>